<?xml version="1.0" encoding="utf-8"?>
<!-- Generator: Adobe Illustrator 24.3.0, SVG Export Plug-In . SVG Version: 6.00 Build 0)  -->
<!DOCTYPE svg PUBLIC "-//W3C//DTD SVG 1.1//EN" "http://www.w3.org/Graphics/SVG/1.1/DTD/svg11.dtd" [
	<!ENTITY ns_extend "http://ns.adobe.com/Extensibility/1.0/">
	<!ENTITY ns_ai "http://ns.adobe.com/AdobeIllustrator/10.0/">
	<!ENTITY ns_graphs "http://ns.adobe.com/Graphs/1.0/">
	<!ENTITY ns_vars "http://ns.adobe.com/Variables/1.0/">
	<!ENTITY ns_imrep "http://ns.adobe.com/ImageReplacement/1.0/">
	<!ENTITY ns_sfw "http://ns.adobe.com/SaveForWeb/1.0/">
	<!ENTITY ns_custom "http://ns.adobe.com/GenericCustomNamespace/1.0/">
	<!ENTITY ns_adobe_xpath "http://ns.adobe.com/XPath/1.0/">
]>
<svg version="1.1" id="artwork" xmlns:x="&ns_extend;" xmlns:i="&ns_ai;" xmlns:graph="&ns_graphs;"
	 xmlns="http://www.w3.org/2000/svg" xmlns:xlink="http://www.w3.org/1999/xlink" x="0px" y="0px" viewBox="0 0 119.7 40"
	 style="enable-background:new 0 0 119.7 40;" xml:space="preserve">
<style type="text/css">
	.st0{fill:#FFFFFF;}
	.st1{fill:url(#SVGID_1_);}
	.st2{fill:url(#SVGID_2_);}
	.st3{fill:url(#SVGID_3_);}
	.st4{fill:url(#SVGID_4_);}
	.st5{opacity:0.2;enable-background:new    ;}
	.st6{opacity:0.12;enable-background:new    ;}
	.st7{opacity:0.25;fill:#FFFFFF;enable-background:new    ;}
</style>
<metadata>
	<sfw  xmlns="&ns_sfw;">
		<slices></slices>
		<sliceSourceBounds  bottomLeftOrigin="true" height="16383" width="16383" x="-8114" y="-8322"></sliceSourceBounds>
	</sfw>
</metadata>
<path class="st0" d="M114.6,0.8c2.3,0,4.2,1.9,4.2,4.2v30c0,2.3-1.9,4.2-4.2,4.2H5.1c-2.3,0-4.2-1.9-4.2-4.2V5
	c0-2.3,1.9-4.2,4.2-4.2H114.6"/>
<g>
	<g>
		<g>
			<path d="M114.6,0.8c2.3,0,4.2,1.9,4.2,4.2v30c0,2.3-1.9,4.2-4.2,4.2H5.1c-2.3,0-4.2-1.9-4.2-4.2V5c0-2.3,1.9-4.2,4.2-4.2H114.6
				 M114.6,0H5.1c-2.8,0-5,2.2-5,5v30c0,2.8,2.2,5,5,5h109.5c2.8,0,5-2.2,5-5V5C119.6,2.3,117.3,0,114.6,0L114.6,0z"/>
		</g>
	</g>
</g>
<g>
	<path d="M42,10.8h-2.8v0.8h1.9c0,0.4-0.2,0.7-0.4,0.9c-0.4,0.4-0.9,0.6-1.4,0.6c-0.5,0-1-0.2-1.4-0.6c-0.4-0.4-0.6-0.9-0.6-1.5
		s0.2-1.1,0.6-1.5c0.4-0.4,0.9-0.6,1.4-0.6c0.6,0,1.1,0.2,1.4,0.6l0.1,0.1l0.6-0.6l-0.1-0.1c-0.2-0.3-0.5-0.5-0.9-0.6
		c-0.4-0.2-0.7-0.2-1.1-0.2c-0.8,0-1.5,0.3-2,0.8c-0.6,0.6-0.8,1.2-0.8,2.1s0.3,1.5,0.8,2.1c0.6,0.6,1.2,0.8,2,0.8
		c0.8,0,1.5-0.3,2-0.8c0.5-0.5,0.7-1.1,0.7-1.9C42,11.2,42,11.1,42,10.8L42,10.8z"/>
	<polygon points="42.8,13.9 46.1,13.9 46.1,13 43.7,13 43.7,11.5 45.9,11.5 45.9,10.7 43.7,10.7 43.7,9.2 46.1,9.2 46.1,8.3 
		42.8,8.3 	"/>
	<polygon points="46.7,9.2 48.2,9.2 48.2,13.9 49,13.9 49,9.2 50.5,9.2 50.5,8.3 46.7,8.3 	"/>
	<rect x="53" y="8.3" width="0.9" height="5.5"/>
	<polygon points="54.6,9.2 56.1,9.2 56.1,13.9 56.9,13.9 56.9,9.2 58.4,9.2 58.4,8.3 54.6,8.3 	"/>
	<path d="M63.4,8.2c-0.8,0-1.5,0.3-2,0.8c-0.5,0.6-0.8,1.2-0.8,2s0.3,1.5,0.8,2c0.5,0.6,1.2,0.8,2,0.8c0.8,0,1.5-0.3,2-0.8
		c0.5-0.6,0.8-1.2,0.8-2c0-0.8-0.3-1.5-0.8-2C64.8,8.5,64.2,8.2,63.4,8.2z M63.4,13.2c-0.5,0-1-0.2-1.4-0.6
		c-0.4-0.4-0.6-0.9-0.6-1.5S61.6,10,62,9.6c0.4-0.4,0.8-0.6,1.4-0.6c0.5,0,1,0.2,1.4,0.6c0.4,0.4,0.6,0.9,0.6,1.5s-0.2,1.1-0.6,1.5
		C64.4,13,63.9,13.2,63.4,13.2z"/>
	<polygon points="70.4,8.3 70.4,11.6 70.5,12.3 68,8.3 67,8.3 67,13.9 67.9,13.9 67.9,10.4 67.8,9.7 70.4,13.8 70.5,13.9 71.3,13.9 
		71.3,8.3 	"/>
</g>
<path d="M60.4,21.6c-2.1,0-3.8,1.6-3.8,3.8c0,2.2,1.7,3.8,3.8,3.8c2.1,0,3.8-1.6,3.8-3.8C64.3,23.2,62.5,21.6,60.4,21.6z M60.4,27.7
	c-1.2,0-2.1-0.9-2.1-2.3c0-1.4,1-2.3,2.1-2.3s2.1,0.9,2.1,2.3C62.6,26.8,61.6,27.7,60.4,27.7z M52.1,21.6c-2.1,0-3.8,1.6-3.8,3.8
	c0,2.2,1.7,3.8,3.8,3.8c2.1,0,3.8-1.6,3.8-3.8C55.9,23.2,54.2,21.6,52.1,21.6z M52.1,27.7c-1.2,0-2.1-0.9-2.1-2.3
	c0-1.4,1-2.3,2.1-2.3c1.2,0,2.1,0.9,2.1,2.3C54.3,26.8,53.3,27.7,52.1,27.7z M42.2,22.8v1.6h3.9c-0.1,0.9-0.4,1.6-0.9,2
	c-0.6,0.6-1.4,1.2-3,1.2c-2.4,0-4.2-1.9-4.2-4.3s1.9-4.3,4.2-4.3c1.3,0,2.2,0.5,2.9,1.2l1.1-1.1c-1-0.9-2.2-1.6-4-1.6
	c-3.3,0-6,2.6-6,5.9c0,3.3,2.7,5.9,6,5.9c1.8,0,3.1-0.6,4.1-1.7c1.1-1.1,1.4-2.6,1.4-3.8c0-0.4,0-0.7-0.1-1H42.2z M82.7,24
	c-0.3-0.8-1.3-2.4-3.3-2.4c-2,0-3.6,1.5-3.6,3.8c0,2.1,1.6,3.8,3.8,3.8c1.7,0,2.7-1.1,3.2-1.7l-1.3-0.9c-0.4,0.6-1,1.1-1.9,1.1
	c-0.8,0-1.5-0.4-1.8-1.2l5.1-2.1L82.7,24z M77.5,25.3c0-1.5,1.1-2.2,2-2.2c0.7,0,1.2,0.3,1.4,0.8L77.5,25.3z M73.4,29h1.7V17.8h-1.7
	V29z M70.7,22.5L70.7,22.5c-0.4-0.4-1.2-0.8-2.1-0.8c-1.9,0-3.6,1.7-3.6,3.8c0,2.1,1.7,3.8,3.6,3.8c0.9,0,1.6-0.4,2-0.9h0.1v0.5
	c0,1.5-0.8,2.2-2,2.2c-1,0-1.7-0.7-1.9-1.4l-1.5,0.6c0.4,1,1.5,2.2,3.4,2.2c2,0,3.6-1.2,3.6-4v-6.8h-1.6V22.5z M68.7,27.7
	c-1.2,0-2.1-1-2.1-2.3c0-1.3,1-2.3,2.1-2.3c1.1,0,2,1,2,2.3C70.8,26.7,69.9,27.7,68.7,27.7z M90.5,17.8h-4V29h1.7v-4.2h2.3
	c1.8,0,3.7-1.3,3.7-3.5S92.4,17.8,90.5,17.8z M90.6,23.2h-2.4v-3.8h2.4c1.2,0,2,1,2,1.9C92.5,22.1,91.8,23.2,90.6,23.2z M100.9,21.6
	c-1.2,0-2.5,0.5-3,1.7l1.5,0.6c0.3-0.6,0.9-0.8,1.5-0.8c0.9,0,1.7,0.5,1.8,1.4v0.1c-0.3-0.2-0.9-0.4-1.7-0.4c-1.6,0-3.2,0.9-3.2,2.5
	c0,1.5,1.3,2.5,2.8,2.5c1.1,0,1.7-0.5,2.1-1.1h0.1V29h1.6v-4.3C104.3,22.7,102.8,21.6,100.9,21.6z M100.7,27.7
	c-0.5,0-1.3-0.3-1.3-0.9c0-0.9,0.9-1.2,1.8-1.2c0.7,0,1.1,0.2,1.5,0.4C102.5,27,101.6,27.7,100.7,27.7z M110.1,21.8l-1.9,4.8h-0.1
	l-2-4.8h-1.8l3,6.8l-1.7,3.8h1.7l4.6-10.5H110.1z M95.1,29h1.7V17.8h-1.7V29z"/>
<g>
	
		<linearGradient id="SVGID_1_" gradientUnits="userSpaceOnUse" x1="19.0449" y1="172.0415" x2="4.052" y2="157.0486" gradientTransform="matrix(1 0 0 -1 0 182)">
		<stop  offset="0" style="stop-color:#00A0FF"/>
		<stop  offset="6.574450e-03" style="stop-color:#00A1FF"/>
		<stop  offset="0.2601" style="stop-color:#00BEFF"/>
		<stop  offset="0.5122" style="stop-color:#00D2FF"/>
		<stop  offset="0.7604" style="stop-color:#00DFFF"/>
		<stop  offset="1" style="stop-color:#00E3FF"/>
	</linearGradient>
	<path class="st1" d="M8.9,8.9c-0.3,0.3-0.4,0.7-0.4,1.3v19.8c0,0.6,0.2,1,0.4,1.3L9,31.2L20,20.2V20v-0.1L8.9,8.9L8.9,8.9z"/>
	
		<linearGradient id="SVGID_2_" gradientUnits="userSpaceOnUse" x1="29.7963" y1="161.9538" x2="8.1795" y2="161.9538" gradientTransform="matrix(1 0 0 -1 0 182)">
		<stop  offset="0" style="stop-color:#FFE000"/>
		<stop  offset="0.4087" style="stop-color:#FFBD00"/>
		<stop  offset="0.7754" style="stop-color:#FFA500"/>
		<stop  offset="1" style="stop-color:#FF9C00"/>
	</linearGradient>
	<path class="st2" d="M23.7,23.9L20,20.2V20v-0.1l3.7-3.7l0.1,0l4.4,2.5c1.2,0.7,1.2,1.9,0,2.6L23.7,23.9L23.7,23.9z"/>
	
		<linearGradient id="SVGID_3_" gradientUnits="userSpaceOnUse" x1="21.7494" y1="159.9039" x2="1.4178" y2="139.5723" gradientTransform="matrix(1 0 0 -1 0 182)">
		<stop  offset="0" style="stop-color:#FF3A44"/>
		<stop  offset="1" style="stop-color:#C31162"/>
	</linearGradient>
	<path class="st3" d="M23.8,23.8L20,20L8.9,31.2c0.4,0.4,1.1,0.5,1.9,0.1L23.8,23.8"/>
	
		<linearGradient id="SVGID_4_" gradientUnits="userSpaceOnUse" x1="6.0889" y1="179.6651" x2="15.1678" y2="170.5862" gradientTransform="matrix(1 0 0 -1 0 182)">
		<stop  offset="0" style="stop-color:#32A071"/>
		<stop  offset="6.850000e-02" style="stop-color:#2DA771"/>
		<stop  offset="0.4762" style="stop-color:#15CF74"/>
		<stop  offset="0.8009" style="stop-color:#06E775"/>
		<stop  offset="1" style="stop-color:#00F076"/>
	</linearGradient>
	<path class="st4" d="M23.8,16.3L10.7,8.9C10,8.4,9.3,8.5,8.9,8.9L20,20L23.8,16.3z"/>
	<g>
		<path class="st5" d="M23.7,23.7l-13,7.4c-0.7,0.4-1.4,0.4-1.8,0l0,0l-0.1,0.1l0,0L9,31.2l0,0c0.4,0.4,1.1,0.4,1.8,0L23.7,23.7
			L23.7,23.7z"/>
		<path class="st6" d="M8.9,31c-0.3-0.3-0.4-0.7-0.4-1.3v0.1c0,0.6,0.2,1,0.4,1.3V31L8.9,31z"/>
	</g>
	<path class="st6" d="M28.2,21.2l-4.5,2.5l0.1,0.1l4.4-2.5c0.6-0.4,0.9-0.8,0.9-1.3l0,0C29.1,20.5,28.7,20.9,28.2,21.2z"/>
	<path class="st7" d="M10.7,9l17.4,9.9c0.6,0.3,0.9,0.7,0.9,1.2l0,0c0-0.5-0.3-0.9-0.9-1.3L10.7,8.9c-1.2-0.7-2.3-0.1-2.3,1.3v0.1
		C8.5,8.9,9.5,8.3,10.7,9z"/>
</g>
</svg>
